<?xml version="1.0" encoding="utf-8"?>
<!-- Generator: Adobe Illustrator 18.0.0, SVG Export Plug-In . SVG Version: 6.00 Build 0)  -->
<!DOCTYPE svg PUBLIC "-//W3C//DTD SVG 1.1//EN" "http://www.w3.org/Graphics/SVG/1.1/DTD/svg11.dtd">
<svg version="1.1" id="Layer_1" xmlns="http://www.w3.org/2000/svg" xmlns:xlink="http://www.w3.org/1999/xlink" x="0px" y="0px"
	 viewBox="0 0 1400 980" enable-background="new 0 0 1400 980" xml:space="preserve">
<g>
	<g>
		<g>
			<g>
				<rect fill="#D1E7F8" width="1400" height="980"/>
			</g>
		</g>
	</g>
	<g>
		<g>
			<g>
				<g>
					<g>
						<path fill="#A9C3D3" d="M114.8,574.3c0.8,55.2,45.8,100.3,101,101.1c57.3,0.8,104-45.4,104-102.5c0-26.5-10-50.6-26.5-68.8
							c-6.9-7.7-8.5-18.8-3.9-28.1c5.4-11,8.4-23.3,8.2-36.5c-0.6-37.2-27.4-68.4-62.7-75.9V156.9h-0.4c4-0.4,7.1-3.8,7.1-7.9V93.9
							c0-4.4-3.6-7.9-7.9-7.9h-32.8c-4.4,0-7.9,3.6-7.9,7.9V149c0,4.1,3.1,7.5,7.1,7.9h-0.4v207.3c-34.5,8.5-60.1,39.6-60.1,76.7
							c0,12,2.7,23.4,7.5,33.6c4.4,9.4,2.7,20.5-4.5,28.1C125,521.3,114.4,546.5,114.8,574.3z M222.9,100.9c0-2.6,2.1-4.8,4.8-4.8
							s4.8,2.1,4.8,4.8v39.6c0,2.6-2.1,4.8-4.8,4.8s-4.8-2.1-4.8-4.8V100.9z M202.1,100.9c0-2.6,2.1-4.8,4.8-4.8
							c2.6,0,4.8,2.1,4.8,4.8v39.6c0,2.6-2.1,4.8-4.8,4.8c-2.6,0-4.8-2.1-4.8-4.8V100.9z"/>
					</g>
				</g>
				<g>
					<path fill="#A9C3D3" d="M185.5,107.6c2,0,3.7-1.6,3.7-3.7v-4.5c0-2-1.6-3.7-3.7-3.7s-3.7,1.6-3.7,3.7v4.5
						C181.8,106,183.5,107.6,185.5,107.6z"/>
				</g>
				<g>
					<path fill="#A9C3D3" d="M185.5,126.4c2,0,3.7-1.6,3.7-3.7v-4.5c0-2-1.6-3.7-3.7-3.7s-3.7,1.6-3.7,3.7v4.5
						C181.8,124.7,183.5,126.4,185.5,126.4z"/>
				</g>
				<g>
					<path fill="#A9C3D3" d="M185.5,145.1c2,0,3.7-1.6,3.7-3.7V137c0-2-1.6-3.7-3.7-3.7s-3.7,1.6-3.7,3.7v4.5
						C181.8,143.5,183.5,145.1,185.5,145.1z"/>
				</g>
				<g>
					<path fill="#A9C3D3" d="M249.1,107.6c2,0,3.7-1.6,3.7-3.7v-4.5c0-2-1.6-3.7-3.7-3.7s-3.7,1.6-3.7,3.7v4.5
						C245.4,106,247.1,107.6,249.1,107.6z"/>
				</g>
				<g>
					<path fill="#A9C3D3" d="M249.1,126.4c2,0,3.7-1.6,3.7-3.7v-4.5c0-2-1.6-3.7-3.7-3.7s-3.7,1.6-3.7,3.7v4.5
						C245.4,124.7,247.1,126.4,249.1,126.4z"/>
				</g>
				<g>
					<path fill="#A9C3D3" d="M249.1,145.1c2,0,3.7-1.6,3.7-3.7V137c0-2-1.6-3.7-3.7-3.7s-3.7,1.6-3.7,3.7v4.5
						C245.4,143.5,247.1,145.1,249.1,145.1z"/>
				</g>
				<g>
					<path fill="#A9C3D3" d="M1283,85.9H863.5c-6.8,0-12.3,5.5-12.3,12.3v130.1c0,6.8,5.5,12.3,12.3,12.3H1283
						c6.8,0,12.3-5.5,12.3-12.3V98.2C1295.2,91.4,1289.7,85.9,1283,85.9z"/>
				</g>
				<g>
					<g>
						<path fill="#A9C3D3" d="M734.5,710.4c1.9,0,3.4-1.5,3.4-3.4v-121c0-1.9-1.5-3.4-3.4-3.4c-1.9,0-3.4,1.5-3.4,3.4v3.2
							l-61.8,35.5c-15.6,9-33.4,13.7-51.4,13.7H552v-13h-3.8v-7.2h3.8v-5.1h-13.1v5.1h3.8v7.2h-3.8v13h-7.7v-13h-3.8v-7.2h3.8v-5.1
							h-13.1v5.1h3.8v7.2h-3.8v13h-7.7v-13h-3.8v-7.2h3.8v-5.1h-13.1v5.1h3.8v7.2h-3.8v13h-92l-25-5.8c-1.2-0.3-2.3,0.6-2.3,1.9v12
							v12c0,1.2,1.1,2.1,2.3,1.9l25-5.8h39.8c-4.1,5.1-6.6,11.6-6.6,18.6c0,16.3,13.3,29.6,29.6,29.6h120.7
							c16.3,0,29.6-13.3,29.6-29.6c0-7.1-2.5-13.5-6.6-18.6h6.1c18,0,35.8,4.7,51.4,13.7l61.8,35.5v3.2
							C731.1,708.9,732.7,710.4,734.5,710.4z M609.5,673.3c0,11.4-9.3,20.7-20.7,20.7H468.1c-11.4,0-20.7-9.3-20.7-20.7
							c0-8.2,4.8-15.3,11.8-18.6h38.1v21h13.1v-21h7.7v21h13.1v-21h7.7v21H552v-21h45.7C604.7,658,609.5,665.1,609.5,673.3z"/>
					</g>
				</g>
				<g>
					<path fill="#A9C3D3" d="M306.4,296.1h247.8V177.8h5v-8.4h-2.7v-15.7c0-1.3-1.1-2.4-2.4-2.4H306.6c-1.3,0-2.4,1.1-2.4,2.4v15.7
						h-2.7v8.4h5V296.1z"/>
				</g>
				<g>
					<path fill="#A9C3D3" d="M550.5,124.2c4.3,0,7.8-3.5,7.8-7.8s-3.5-7.8-7.8-7.8c-3.3,0-6.1,2-7.2,4.9h-241v6h241
						C544.4,122.2,547.2,124.2,550.5,124.2z"/>
				</g>
				<g>
					<path fill="#A9C3D3" d="M550.5,101.6c4.3,0,7.8-3.5,7.8-7.8c0-4.3-3.5-7.8-7.8-7.8c-3.3,0-6.1,2-7.2,4.9h-241v6h241
						C544.4,99.6,547.2,101.6,550.5,101.6z"/>
				</g>
				<g>
					<path fill="#A9C3D3" d="M755.4,817l-92.2-43.6l-26.9,10.8v0H365.2c5.2-18.7,18.5-34.2,35.8-42.4c-13.7-11.3-31.3-18-50.4-18
						c-12.1,0-23.5,2.7-33.8,7.5c-9.5,4.5-20.7,2.7-28.3-4.5c-18.8-17.7-44.2-28.4-72.1-28c-55.6,0.8-100.9,46.1-101.7,101.6
						c-0.8,57.6,45.7,104.6,103.1,104.6c26.6,0,50.9-10.1,69.2-26.7c7.7-7,18.9-8.5,28.2-3.9c11,5.5,23.5,8.5,36.7,8.2
						c19.4-0.3,37.2-7.8,50.9-19.8c-18.3-7.9-32.3-23.8-37.7-43.3h271.2v0l35.1,19.5c0,0,38.6-21.9,59.2-12.2
						c1.2,0.6,2.4,1.1,3.5,1.6c-0.3,1.2-0.4,2.4-0.4,3.6c0,9,7.3,16.3,16.3,16.3c9,0,16.3-7.3,16.3-16.3
						C766.2,825.3,761.7,819.3,755.4,817z"/>
				</g>
				<g>
					<path fill="#A9C3D3" d="M376.5,518.1c0,33.5,6.8,38.5,15.3,38.5c8.4,0,15.3-5,15.3-38.5c0-15.3-1.4-29.3-3.8-40
						c-1.6-7.4,1.1-15.1,6.9-20c2.3-1.9,4.6-3.9,6.7-5.9c2.9-2.5,5.6-5.3,7.9-8.5c0,0,0,0,0,0h0c2.7-3.7,5-7.9,6.7-12.4h0
						c0,0,0,0,0,0c0.6-1.6,1.2-3.3,1.7-5c0-0.1,0.1-0.2,0.1-0.3c0.2-0.5,0.3-1.1,0.4-1.7c0,0,0-0.1,0-0.1c0.3-1.2,0.5-2.3,0.8-3.5
						c0,0,0-0.1,0-0.1c0.1-0.5,0.2-1.1,0.3-1.6c0-0.2,0.1-0.4,0.1-0.5c0.4-2.9,0.7-5.9,0.7-9c0-1.1,0-2.3-0.1-3.4c0-0.3,0-0.5,0-0.8
						c-0.1-1-0.2-2-0.3-3c0-0.1,0-0.2,0-0.2c-0.3-2.4-0.7-4.7-1.3-7c0,0,0,0,0,0h0c-0.8-3.3-1.8-6.4-3.1-9.3c0,0,0-0.1-0.1-0.1
						c-0.3-0.6-0.5-1.2-0.8-1.9c0,0,0-0.1,0-0.1c-7.5-15.7-21.7-26.4-38-26.4c-16.3,0-30.5,10.6-38,26.4c0,0,0,0.1,0,0.1
						c-0.3,0.6-0.6,1.2-0.8,1.9c0,0,0,0.1,0,0.1c-2.2,5-3.7,10.5-4.4,16.3c0,0.1,0,0.2,0,0.2c-0.1,1-0.2,2-0.3,3.1
						c0,0.3,0,0.5,0,0.8c-0.1,1.1-0.1,2.3-0.1,3.4c0,3.1,0.2,6.1,0.7,9c0,0.2,0.1,0.4,0.1,0.5c0.1,0.5,0.2,1.1,0.3,1.6
						c0,0,0,0.1,0,0.1c0.2,1.2,0.5,2.4,0.8,3.5c0,0,0,0,0,0.1c0.1,0.6,0.3,1.1,0.4,1.7c0,0.1,0,0.2,0.1,0.3
						c3,10.6,8.8,19.6,16.3,25.9c2.1,2,4.4,4,6.7,5.9c5.8,4.9,8.5,12.5,6.9,20C377.9,488.8,376.5,502.8,376.5,518.1z"/>
				</g>
				<g>
					<path fill="#A9C3D3" d="M535.4,406.2c0-0.3,0-0.5,0-0.8c-0.1-1-0.2-2-0.3-3c0-0.1,0-0.2,0-0.2c-0.3-2.4-0.7-4.7-1.3-7
						c0,0,0,0,0,0l0,0c-0.8-3.3-1.8-6.4-3.1-9.3c0,0,0-0.1-0.1-0.1c-0.3-0.6-0.5-1.2-0.8-1.9c0,0,0-0.1,0-0.1
						c-1.8-3.8-4-7.3-6.6-10.4c0,0,0,0,0,0l0,0c-8-9.8-19.1-15.9-31.4-15.9c-16.3,0-30.5,10.6-38,26.4c0,0,0,0.1,0,0.1
						c-0.3,0.6-0.6,1.2-0.8,1.9c0,0,0,0.1-0.1,0.1c-1.3,3-2.3,6.1-3.1,9.3l0,0c0,0,0,0,0,0c-0.5,2.3-1,4.6-1.3,7c0,0.1,0,0.2,0,0.2
						c-0.1,1-0.2,2-0.3,3.1c0,0.3,0,0.5,0,0.8c-0.1,1.1-0.1,2.3-0.1,3.4c0,3.1,0.2,6.1,0.7,9c0,0.2,0.1,0.4,0.1,0.5
						c0.1,0.5,0.2,1.1,0.3,1.6c0,0,0,0.1,0,0.1c0.2,1.2,0.5,2.4,0.8,3.5c0,0,0,0,0,0.1c0.1,0.6,0.3,1.1,0.4,1.7
						c0,0.1,0.1,0.2,0.1,0.3c0.5,1.7,1.1,3.4,1.7,5c0,0,0,0,0,0l0,0c3.2,8.4,8.3,15.6,14.6,20.9c2.1,2,4.4,4,6.7,5.9
						c5.8,4.9,8.5,12.5,6.9,20c-2.4,10.7-3.8,24.7-3.8,40c0,33.5,6.8,38.5,15.3,38.5c8.4,0,15.3-5,15.3-38.5c0-15.3-1.4-29.3-3.8-40
						c-1.6-7.4,1.1-15.1,6.9-20c2.3-1.9,4.6-3.9,6.7-5.9c2.9-2.5,5.6-5.3,7.9-8.5c0,0,0,0,0,0h0c2.7-3.7,5-7.9,6.7-12.4l0,0
						c0,0,0,0,0,0c0.6-1.6,1.2-3.3,1.7-5c0-0.1,0.1-0.2,0.1-0.3c0.2-0.5,0.3-1.1,0.4-1.7c0,0,0,0,0-0.1c0.3-1.2,0.5-2.3,0.8-3.5
						c0,0,0-0.1,0-0.1c0.1-0.5,0.2-1.1,0.3-1.6c0-0.2,0.1-0.4,0.1-0.5c0.1-0.5,0.2-1.1,0.2-1.6c0,0,0,0,0,0h0
						c0.3-2.4,0.4-4.9,0.4-7.4C535.5,408.5,535.5,407.3,535.4,406.2z"/>
				</g>
				<g>
					<g>
						<path fill="#A9C3D3" d="M812.1,370.4c6.2,0,11.3-5,11.3-11.3v-11.3c0-6.2-5-11.3-11.3-11.3h-21.5l-0.5-6.4h17.5
							c6.2,0,11.3-5,11.3-11.3v-11.3c0-6.2-5-11.3-11.3-11.3h-20.1l-0.5-6.4h16.1c6.2,0,11.3-5,11.3-11.3v-11.3
							c0-6.2-5-11.3-11.3-11.3h-18.6l-0.5-6.4h14.7c6.2,0,11.3-5,11.3-11.3v-11.3c0-6.2-5-11.3-11.3-11.3h-17.2l-0.5-6.4h13.2
							c6.2,0,11.3-5,11.3-11.3v-11.3c0-6.2-5-11.3-11.3-11.3h-15.8l-0.5-6.4h11.8c6.2,0,11.3-5,11.3-11.3v-11.3
							c0-6.2-5-11.3-11.3-11.3h-14.3l-0.5-6.4h10.4c6.2,0,11.3-5,11.3-11.3v-11.3c0-6.2-5-11.3-11.3-11.3h-12.9l-0.4-5.7
							c-0.2-2.3-2.2-4-4.5-3.9c-2.3,0.2-4,2.2-3.9,4.5l0.4,5.1h-61.9l0.4-5.1c0.2-2.3-1.6-4.3-3.9-4.5c-2.3-0.2-4.3,1.6-4.5,3.9
							l-0.4,5.7h-12.9c-6.2,0-11.3,5-11.3,11.3V118c0,6.2,5,11.3,11.3,11.3h10.4l-0.5,6.4h-14.3c-6.2,0-11.3,5-11.3,11.3v11.3
							c0,6.2,5,11.3,11.3,11.3h11.8l-0.5,6.4H672c-6.2,0-11.3,5-11.3,11.3v11.3c0,6.2,5,11.3,11.3,11.3h13.2l-0.5,6.4h-17.2
							c-6.2,0-11.3,5-11.3,11.3v11.3c0,6.2,5,11.3,11.3,11.3h14.7l-0.5,6.4H663c-6.2,0-11.3,5-11.3,11.3v11.3
							c0,6.2,5,11.3,11.3,11.3h16.1l-0.5,6.4h-20.1c-6.2,0-11.3,5-11.3,11.3V319c0,6.2,5,11.3,11.3,11.3h17.5l-0.5,6.4h-21.5
							c-6.2,0-11.3,5-11.3,11.3v11.3c0,6.2,5,11.3,11.3,11.3h19l-0.4,5.4c-0.2,2.3,1.6,4.3,3.9,4.5c2.3,0.2,4.3-1.6,4.5-3.9l0.5-6.1
							h103.2l0.5,6.1c0.2,2.3,2.2,4,4.5,3.9c2.3-0.2,4-2.2,3.9-4.5l-0.4-5.4H812.1z M699.6,129.2h67l0.5,6.4h-67.9L699.6,129.2z
							 M696.6,169.4h73l0.5,6.4h-74L696.6,169.4z M693.6,209.6h79l0.5,6.4h-80L693.6,209.6z M690.6,249.8h85.1l0.5,6.4h-86.1
							L690.6,249.8z M687.6,290h91.1l0.5,6.4h-92.1L687.6,290z M684.1,336.7l0.5-6.4h97.2l0.5,6.4H684.1z"/>
					</g>
				</g>
				<g>
					<path fill="#A9C3D3" d="M1021.9,497.5H810.5c-8.5,0-15.4,6.9-15.4,15.4v376.8c0,8.5,6.9,15.4,15.4,15.4h211.5
						c8.5,0,15.4-6.9,15.4-15.4V512.9C1037.3,504.4,1030.4,497.5,1021.9,497.5z"/>
				</g>
				<g>
					<path fill="#A9C3D3" d="M1279.9,497.5h-211.5c-8.5,0-15.4,6.9-15.4,15.4v376.8c0,8.5,6.9,15.4,15.4,15.4h211.5
						c8.5,0,15.4-6.9,15.4-15.4V512.9C1295.2,504.4,1288.3,497.5,1279.9,497.5z"/>
				</g>
				<g>
					<path fill="#A9C3D3" d="M592.7,449h0.8c2.3,9.1,8,16.8,15.7,21.8h0l1.5,124.8h5.3v14.9h26.4v-14.9h5.3l1.5-124.8h0
						c7.7-5,13.4-12.7,15.7-21.8h0.8c0.7,0,1.3-0.6,1.3-1.3V432c0-0.7-0.6-1.3-1.3-1.3h-0.8c-4.1-15.9-18.5-27.7-35.7-27.7
						s-31.6,11.8-35.7,27.7h-0.8c-0.7,0-1.3,0.6-1.3,1.3v15.8C591.4,448.4,592,449,592.7,449z"/>
				</g>
				<g>
					<path fill="#A9C3D3" d="M1205,296.4c-12,0-23.3,2.7-33.4,7.6c3,3.7,4.7,8,4.7,12.6c0,14.3-16.7,25.9-37.2,25.9
						c-20.5,0-37.2-11.6-37.2-25.9c0-1.1,0.1-2.2,0.3-3.3c-28.1,1.5-51.3,22.8-55.7,50.1l-140.6,2.2v-0.1c0-1.8-1.5-3.2-3.3-3.1
						l-7.6,0.5v-10.7c1.6-0.5,2.7-2,2.7-3.8c0-2.2-1.8-4-4-4s-4,1.8-4,4c0,1.8,1.1,3.2,2.7,3.8V363l-14.3,0.9v-11.8
						c1.6-0.5,2.7-2,2.7-3.8c0-2.2-1.8-4-4-4s-4,1.8-4,4c0,1.8,1.1,3.2,2.7,3.8v11.9L863,365c-4.6,0.3-8.3,4.2-8.3,8.8
						s3.6,8.5,8.3,8.8l6.9,0.5v12.3c-1.6,0.5-2.7,2-2.7,3.8c0,2.2,1.8,4,4,4s4-1.8,4-4c0-1.8-1.1-3.2-2.7-3.8v-12.1l14.3,0.9v11.2
						c-1.6,0.5-2.7,2-2.7,3.8c0,2.2,1.8,4,4,4s4-1.8,4-4c0-1.8-1.1-3.2-2.7-3.8v-11l13.2,0.9c1.8,0.1,3.3-1.3,3.3-3.1V382l141,2.2
						c5.1,26.4,27.6,46.6,55.1,48.1c0-0.4,0-0.9,0-1.3c0-14.3,16.7-25.9,37.2-25.9c20.5,0,37.2,11.6,37.2,25.9
						c0,4.6-1.7,8.9-4.7,12.6c10.4,5,22.1,7.7,34.5,7.6c39.9-0.5,72.7-31.7,76-70.9l13.1-1.6v-9.7l-13.1-1.6
						C1278.8,327.6,1245.6,296.4,1205,296.4z"/>
				</g>
				<g>
					<path fill="#A9C3D3" d="M1286.8,291.9v-6.2H962.9c-1.7,0-3.1,1.4-3.1,3.1s1.4,3.1,3.1,3.1H1286.8z"/>
				</g>
			</g>
		</g>
		<g>
			<path fill="#F16135" d="M223.7,74.9h-32.8c-4.4,0-7.9,3.6-7.9,7.9V138c0,4.4,3.6,7.9,7.9,7.9h32.8c4.4,0,7.9-3.6,7.9-7.9V82.9
				C231.7,78.5,228.1,74.9,223.7,74.9z M201.6,129.5c0,2.6-2.1,4.8-4.8,4.8c-2.6,0-4.8-2.1-4.8-4.8V89.9c0-2.6,2.1-4.8,4.8-4.8
				c2.6,0,4.8,2.1,4.8,4.8V129.5z M222.5,129.5c0,2.6-2.1,4.8-4.8,4.8c-2.6,0-4.8-2.1-4.8-4.8V89.9c0-2.6,2.1-4.8,4.8-4.8
				c2.6,0,4.8,2.1,4.8,4.8V129.5z"/>
			<path fill="#F16135" d="M279.4,465c5.4-11,8.4-23.3,8.2-36.5c-0.7-42.1-35-76.6-77.1-77.6c-44.5-1-80.9,34.7-80.9,79
				c0,12,2.7,23.4,7.5,33.6c4.4,9.4,2.7,20.5-4.5,28.1c-17.6,18.7-28.2,43.9-27.8,71.6c0.8,55.2,45.8,100.3,101,101.1
				c57.3,0.8,104-45.4,104-102.5c0-26.5-10-50.6-26.5-68.8C276.4,485.4,274.8,474.2,279.4,465z"/>
			<circle fill="#FABE31" cx="207.3" cy="474.3" r="35.9"/>
			<circle fill="#00375C" cx="207.3" cy="474.3" r="28.6"/>
			<rect x="189.7" y="145.9" fill="#00375C" width="35.3" height="279.5"/>
			<g>
				<g>
					<path fill="#FABE31" d="M175.5,84.8c-2,0-3.7,1.6-3.7,3.7v4.5c0,2,1.6,3.7,3.7,3.7s3.7-1.6,3.7-3.7v-4.5
						C179.2,86.4,177.5,84.8,175.5,84.8z"/>
					<path fill="#FABE31" d="M175.5,103.5c-2,0-3.7,1.6-3.7,3.7v4.5c0,2,1.6,3.7,3.7,3.7s3.7-1.6,3.7-3.7v-4.5
						C179.2,105.2,177.5,103.5,175.5,103.5z"/>
					<path fill="#FABE31" d="M175.5,122.3c-2,0-3.7,1.6-3.7,3.7v4.5c0,2,1.6,3.7,3.7,3.7s3.7-1.6,3.7-3.7V126
						C179.2,123.9,177.5,122.3,175.5,122.3z"/>
					<path fill="#FABE31" d="M239.1,84.8c-2,0-3.7,1.6-3.7,3.7v4.5c0,2,1.6,3.7,3.7,3.7s3.7-1.6,3.7-3.7v-4.5
						C242.8,86.4,241.1,84.8,239.1,84.8z"/>
					<path fill="#FABE31" d="M239.1,103.5c-2,0-3.7,1.6-3.7,3.7v4.5c0,2,1.6,3.7,3.7,3.7s3.7-1.6,3.7-3.7v-4.5
						C242.8,105.2,241.1,103.5,239.1,103.5z"/>
					<path fill="#FABE31" d="M239.1,122.3c-2,0-3.7,1.6-3.7,3.7v4.5c0,2,1.6,3.7,3.7,3.7s3.7-1.6,3.7-3.7V126
						C242.8,123.9,241.1,122.3,239.1,122.3z"/>
				</g>
			</g>
			<rect x="175.1" y="560.2" fill="#00375C" width="64.4" height="16.6"/>
		</g>
		<g>
			<path fill="#006A80" d="M1273,74.9H853.5c-6.8,0-12.3,5.5-12.3,12.3v130.1c0,6.8,5.5,12.3,12.3,12.3H1273
				c6.8,0,12.3-5.5,12.3-12.3V87.2C1285.2,80.4,1279.7,74.9,1273,74.9z"/>
			<rect x="892.9" y="134.9" fill="#00375C" width="340.6" height="91.2"/>
			<g>
				<rect x="896.8" y="138.3" fill="#FFFFFF" width="25.2" height="83.9"/>
				<rect x="924.8" y="138.3" fill="#FFFFFF" width="25.2" height="83.9"/>
				<rect x="952.7" y="138.3" fill="#FFFFFF" width="25.2" height="83.9"/>
				<rect x="980.7" y="138.3" fill="#FFFFFF" width="25.2" height="83.9"/>
				<rect x="1008.7" y="138.3" fill="#FFFFFF" width="25.2" height="83.9"/>
				<rect x="1036.6" y="138.3" fill="#FFFFFF" width="25.2" height="83.9"/>
				<rect x="1064.6" y="138.3" fill="#FFFFFF" width="25.2" height="83.9"/>
				<rect x="1092.5" y="138.3" fill="#FFFFFF" width="25.2" height="83.9"/>
				<rect x="1120.5" y="138.3" fill="#FFFFFF" width="25.2" height="83.9"/>
				<rect x="1148.5" y="138.3" fill="#FFFFFF" width="25.2" height="83.9"/>
				<rect x="1176.4" y="138.3" fill="#FFFFFF" width="25.2" height="83.9"/>
				<rect x="1204.4" y="138.5" fill="#FFFFFF" width="25.2" height="83.9"/>
				<rect x="915.1" y="138.3" fill="#00375C" width="16.4" height="54.4"/>
				<rect x="943" y="138.3" fill="#00375C" width="16.4" height="54.4"/>
				<rect x="1110.8" y="138.3" fill="#00375C" width="16.4" height="54.4"/>
				<rect x="1138.6" y="138.3" fill="#00375C" width="16.4" height="54.4"/>
				<rect x="1194.9" y="138.3" fill="#00375C" width="16.4" height="54.4"/>
				<rect x="998.9" y="138.3" fill="#00375C" width="16.4" height="54.4"/>
				<rect x="1026.8" y="138.3" fill="#00375C" width="16.4" height="54.4"/>
				<rect x="1054.8" y="138.3" fill="#00375C" width="16.4" height="54.4"/>
			</g>
			<g>
				<g>
					<g>
						<rect x="851.7" y="86.2" fill="#00375C" width="31.2" height="3.3"/>
						<rect x="851.7" y="91.3" fill="#00375C" width="31.2" height="3.3"/>
						<rect x="851.7" y="96.5" fill="#00375C" width="31.2" height="3.3"/>
						<rect x="851.7" y="101.6" fill="#00375C" width="31.2" height="3.3"/>
						<rect x="851.7" y="106.7" fill="#00375C" width="31.2" height="3.3"/>
						<rect x="851.7" y="111.8" fill="#00375C" width="31.2" height="3.3"/>
						<rect x="851.7" y="116.9" fill="#00375C" width="31.2" height="3.3"/>
						<rect x="851.7" y="122" fill="#00375C" width="31.2" height="3.3"/>
						<rect x="851.7" y="127.2" fill="#00375C" width="31.2" height="3.3"/>
					</g>
					<g>
						<rect x="1243.6" y="86.2" fill="#00375C" width="31.2" height="3.3"/>
						<rect x="1243.6" y="91.3" fill="#00375C" width="31.2" height="3.3"/>
						<rect x="1243.6" y="96.5" fill="#00375C" width="31.2" height="3.3"/>
						<rect x="1243.6" y="101.6" fill="#00375C" width="31.2" height="3.3"/>
						<rect x="1243.6" y="106.7" fill="#00375C" width="31.2" height="3.3"/>
						<rect x="1243.6" y="111.8" fill="#00375C" width="31.2" height="3.3"/>
						<rect x="1243.6" y="116.9" fill="#00375C" width="31.2" height="3.3"/>
						<rect x="1243.6" y="122" fill="#00375C" width="31.2" height="3.3"/>
						<rect x="1243.6" y="127.2" fill="#00375C" width="31.2" height="3.3"/>
					</g>
				</g>
			</g>
			<g>
				<g>
					<rect x="908.8" y="88.7" fill="#00375C" width="1.4" height="38.1"/>
					<rect x="906.8" y="102" fill="#00375C" width="5.4" height="9.9"/>
				</g>
			</g>
			<g>
				<g>
					<rect x="918.3" y="88.7" fill="#00375C" width="1.4" height="38.1"/>
					<rect x="916.3" y="105.9" fill="#00375C" width="5.4" height="9.9"/>
				</g>
			</g>
			<g>
				<g>
					<rect x="927.7" y="88.7" fill="#00375C" width="1.4" height="38.1"/>
					<rect x="925.8" y="96.5" fill="#00375C" width="5.4" height="9.9"/>
				</g>
			</g>
			<g>
				<g>
					<rect x="937.2" y="88.7" fill="#00375C" width="1.4" height="38.1"/>
					<rect x="935.2" y="102" fill="#00375C" width="5.4" height="9.9"/>
				</g>
			</g>
			<g>
				<g>
					<path fill="#00375C" d="M1126.4,88.6h-6.3c-1.1,0-1.9,0.9-1.9,1.9v6.3c0,1.1,0.9,1.9,1.9,1.9h6.3c1.1,0,1.9-0.9,1.9-1.9v-6.3
						C1128.3,89.4,1127.5,88.6,1126.4,88.6z"/>
					<path fill="#00375C" d="M1144.8,88.6h-6.3c-1.1,0-1.9,0.9-1.9,1.9v6.3c0,1.1,0.9,1.9,1.9,1.9h6.3c1.1,0,1.9-0.9,1.9-1.9v-6.3
						C1146.7,89.4,1145.8,88.6,1144.8,88.6z"/>
					<path fill="#00375C" d="M1163.2,88.6h-6.3c-1.1,0-1.9,0.9-1.9,1.9v6.3c0,1.1,0.9,1.9,1.9,1.9h6.3c1.1,0,1.9-0.9,1.9-1.9v-6.3
						C1165.1,89.4,1164.2,88.6,1163.2,88.6z"/>
					<path fill="#00375C" d="M1181.5,88.6h-6.3c-1.1,0-1.9,0.9-1.9,1.9v6.3c0,1.1,0.9,1.9,1.9,1.9h6.3c1.1,0,1.9-0.9,1.9-1.9v-6.3
						C1183.5,89.4,1182.6,88.6,1181.5,88.6z"/>
					<path fill="#00375C" d="M1199.9,88.6h-6.3c-1.1,0-1.9,0.9-1.9,1.9v6.3c0,1.1,0.9,1.9,1.9,1.9h6.3c1.1,0,1.9-0.9,1.9-1.9v-6.3
						C1201.8,89.4,1201,88.6,1199.9,88.6z"/>
					<path fill="#00375C" d="M1218.3,88.6h-6.3c-1.1,0-1.9,0.9-1.9,1.9v6.3c0,1.1,0.9,1.9,1.9,1.9h6.3c1.1,0,1.9-0.9,1.9-1.9v-6.3
						C1220.2,89.4,1219.3,88.6,1218.3,88.6z"/>
				</g>
			</g>
			<rect x="1026.2" y="87.8" fill="#00375C" width="74" height="28.6"/>
		</g>
		<g>
			<g>
				<path fill="#F9BD31" d="M659.3,613.8c-15.6,9-33.4,13.7-51.4,13.7H395.3l-25-5.8c-1.2-0.3-2.3,0.6-2.3,1.9v12v12
					c0,1.2,1.1,2.1,2.3,1.9l25-5.8h212.6c18,0,35.8,4.7,51.4,13.7l63.9,36.7v-58.5V577L659.3,613.8z"/>
				<g>
					<g>
						<path fill="#F9BD31" d="M578.8,691.9H458.1c-16.3,0-29.6-13.3-29.6-29.6c0-16.3,13.3-29.6,29.6-29.6h120.7
							c16.3,0,29.6,13.3,29.6,29.6C608.4,678.6,595.1,691.9,578.8,691.9z M458.1,641.6c-11.4,0-20.7,9.3-20.7,20.7
							c0,11.4,9.3,20.7,20.7,20.7h120.7c11.4,0,20.7-9.3,20.7-20.7c0-11.4-9.3-20.7-20.7-20.7H458.1z"/>
					</g>
				</g>
				<g>
					<rect x="491.2" y="604.3" fill="#F16135" width="5.4" height="50.1"/>
					<rect x="487.3" y="602.2" fill="#F16135" width="13.1" height="5.1"/>
					<rect x="487.3" y="614.5" fill="#F9BD31" width="13.1" height="50.1"/>
				</g>
				<g>
					<rect x="512" y="604.3" fill="#F16135" width="5.4" height="50.1"/>
					<rect x="508.1" y="602.2" fill="#F16135" width="13.1" height="5.1"/>
					<rect x="508.1" y="614.5" fill="#F9BD31" width="13.1" height="50.1"/>
				</g>
				<g>
					<rect x="532.7" y="604.3" fill="#F16135" width="5.4" height="50.1"/>
					<rect x="528.9" y="602.2" fill="#F16135" width="13.1" height="5.1"/>
					<rect x="528.9" y="614.5" fill="#F9BD31" width="13.1" height="50.1"/>
				</g>
			</g>
			<path fill="#F16135" d="M724.5,571.7c-1.9,0-3.4,1.5-3.4,3.4v121c0,1.9,1.5,3.4,3.4,3.4c1.9,0,3.4-1.5,3.4-3.4v-121
				C727.9,573.2,726.4,571.7,724.5,571.7z"/>
		</g>
		<g>
			<g>
				<rect x="296.4" y="146.6" fill="#F16135" width="247.8" height="138.5"/>
				<path fill="#F9BD31" d="M544,140.3H296.6c-1.3,0-2.4,1.1-2.4,2.4V163h252.2v-20.2C546.4,141.4,545.3,140.3,544,140.3z"/>
				<rect x="291.4" y="158.4" fill="#CCC6C6" width="257.7" height="8.4"/>
				<g>
					<g>
						<path fill="#00375C" d="M323.7,211.5h-4c-4.2,0-7.6,3.4-7.6,7.6v15.1c0,4.2,3.4,7.6,7.6,7.6h4c4.2,0,7.6-3.4,7.6-7.6v-15.1
							C331.3,214.9,327.9,211.5,323.7,211.5z"/>
						<rect x="319.1" y="155" fill="#00375C" width="5.3" height="72.8"/>
					</g>
					<g>
						<path fill="#00375C" d="M422.3,211.5h-4c-4.2,0-7.6,3.4-7.6,7.6v15.1c0,4.2,3.4,7.6,7.6,7.6h4c4.2,0,7.6-3.4,7.6-7.6v-15.1
							C429.9,214.9,426.5,211.5,422.3,211.5z"/>
						<rect x="417.6" y="155" fill="#00375C" width="5.3" height="72.8"/>
					</g>
					<g>
						<path fill="#00375C" d="M520.9,211.5h-4c-4.2,0-7.6,3.4-7.6,7.6v15.1c0,4.2,3.4,7.6,7.6,7.6h4c4.2,0,7.6-3.4,7.6-7.6v-15.1
							C528.4,214.9,525.1,211.5,520.9,211.5z"/>
						<rect x="516.2" y="155" fill="#00375C" width="5.3" height="72.8"/>
					</g>
				</g>
			</g>
			<g>
				<g>
					<rect x="292.3" y="102.4" fill="#F9BD31" width="244.8" height="6"/>
					<circle fill="#F9BD31" cx="540.5" cy="105.3" r="7.8"/>
				</g>
				<g>
					<rect x="292.3" y="79.8" fill="#F9BD31" width="244.8" height="6"/>
					<circle fill="#F9BD31" cx="540.5" cy="82.8" r="7.8"/>
				</g>
			</g>
		</g>
		<g>
			<path fill="#006A80" d="M277.1,867.4c7.7-7,18.9-8.5,28.2-3.9c11,5.5,23.5,8.5,36.7,8.2c19.4-0.3,37.2-7.8,50.9-19.8
				c-23.9-10.3-40.5-34.2-40.1-62c0.4-26.1,16-48.6,38.2-59.2c-13.7-11.3-31.3-18-50.4-18c-12.1,0-23.5,2.7-33.8,7.5
				c-9.5,4.5-20.7,2.7-28.3-4.5c-18.8-17.7-44.2-28.4-72.1-28c-55.6,0.8-100.9,46.1-101.7,101.6c-0.8,57.6,45.7,104.6,103.1,104.6
				C234.5,894.1,258.8,884,277.1,867.4z"/>
			<rect x="300.9" y="773.2" fill="#00375C" width="325.5" height="35.5"/>
			<rect x="192.8" y="758.6" fill="#00375C" width="16.7" height="64.8"/>
			<path fill="#006A80" d="M724.1,817.7c-0.3,1.2-0.4,2.4-0.4,3.6c0,9,7.3,16.3,16.3,16.3c9,0,16.3-7.3,16.3-16.3
				c0-7-4.5-13-10.7-15.3l-92.2-43.6l-26.9,10.8v35.5l35.1,19.5c0,0,38.6-21.9,59.2-12.2C721.8,816.6,723,817.2,724.1,817.7z"/>
			<path fill="#00375C" d="M292.5,808.1v-34.3c0-3.2-2.6-5.8-5.8-5.8h-11c-3.2,0-5.8,2.6-5.8,5.8v34.3c0,3.2,2.6,5.8,5.8,5.8h11
				C289.9,813.9,292.5,811.3,292.5,808.1z"/>
			<path fill="#00375C" d="M256.2,808.1v-34.3c0-3.2-2.6-5.8-5.8-5.8h-11c-3.2,0-5.8,2.6-5.8,5.8v34.3c0,3.2,2.6,5.8,5.8,5.8h11
				C253.6,813.9,256.2,811.3,256.2,808.1z"/>
		</g>
		<g>
			<g>
				<ellipse fill="#F16135" cx="381.8" cy="398.6" rx="43.7" ry="52.2"/>
				<path fill="#00375C" d="M414.8,432.8h-66.1c3.1,4.3,8.8,9.6,14.6,14.4c5.8,4.9,8.5,12.5,6.9,20c-2.4,10.7-3.8,24.7-3.8,40
					c0,33.5,6.8,38.5,15.3,38.5c8.4,0,15.3-5,15.3-38.5c0-15.3-1.4-29.3-3.8-40c-1.6-7.4,1.1-15.1,6.9-20
					C406,442.4,411.7,437.1,414.8,432.8z"/>
				<g>
					<path fill="#FABE31" d="M342.1,376.8h79.4c-2.1-5.4-4.9-10.2-8.3-14.4h-62.9C347,366.6,344.1,371.4,342.1,376.8z"/>
					<path fill="#FABE31" d="M425.5,398.6c0-5-0.6-9.8-1.7-14.4h-84c-1.1,4.6-1.7,9.4-1.7,14.4H425.5z"/>
					<path fill="#FABE31" d="M421.5,420.4c1.7-4.5,3-9.3,3.6-14.4h-86.6c0.6,5.1,1.8,9.9,3.6,14.4H421.5z"/>
				</g>
			</g>
			<g>
				<ellipse fill="#F16135" cx="481.8" cy="398.6" rx="43.7" ry="52.2"/>
				<path fill="#00375C" d="M514.8,432.8h-66.1c3.1,4.3,8.8,9.6,14.6,14.4c5.8,4.9,8.5,12.5,6.9,20c-2.4,10.7-3.8,24.7-3.8,40
					c0,33.5,6.8,38.5,15.3,38.5c8.4,0,15.3-5,15.3-38.5c0-15.3-1.4-29.3-3.8-40c-1.6-7.4,1.1-15.1,6.9-20
					C506,442.4,511.7,437.1,514.8,432.8z"/>
				<g>
					<path fill="#FABE31" d="M442.1,376.8h79.4c-2.1-5.4-4.9-10.2-8.3-14.4h-62.9C447,366.6,444.1,371.4,442.1,376.8z"/>
					<path fill="#FABE31" d="M525.5,398.6c0-5-0.6-9.8-1.7-14.4h-84c-1.1,4.6-1.7,9.4-1.7,14.4H525.5z"/>
					<path fill="#FABE31" d="M521.5,420.4c1.7-4.5,3-9.3,3.6-14.4h-86.6c0.6,5.1,1.8,9.9,3.6,14.4H521.5z"/>
				</g>
			</g>
		</g>
		<g>
			<g>
				<path fill="#00375C" d="M688.7,74.9c-2.3-0.2-4.3,1.6-4.5,3.9l-21.5,286.1c-0.2,2.3,1.6,4.3,3.9,4.5s4.3-1.6,4.5-3.9l21.5-286.1
					C692.7,77.1,691,75.1,688.7,74.9z"/>
				<path fill="#00375C" d="M779.7,369.3c-2.3,0.2-4.3-1.6-4.5-3.9L753.7,79.4c-0.2-2.3,1.6-4.3,3.9-4.5c2.3-0.2,4.3,1.6,4.5,3.9
					l21.5,286.1C783.7,367.2,782,369.2,779.7,369.3z"/>
			</g>
			<path fill="#F16135" d="M775.4,84.5H670.9c-6.2,0-11.3,5-11.3,11.3V107c0,6.2,5,11.3,11.3,11.3h104.5c6.2,0,11.3-5,11.3-11.3
				V95.7C786.6,89.5,781.6,84.5,775.4,84.5z"/>
			<path fill="#FABE31" d="M779.8,124.7H666.4c-6.2,0-11.3,5-11.3,11.3v11.3c0,6.2,5,11.3,11.3,11.3h113.4c6.2,0,11.3-5,11.3-11.3
				v-11.3C791.1,129.7,786,124.7,779.8,124.7z"/>
			<path fill="#F16135" d="M784.3,164.9H662c-6.2,0-11.3,5-11.3,11.3v11.3c0,6.2,5,11.3,11.3,11.3h122.3c6.2,0,11.3-5,11.3-11.3
				v-11.3C795.5,169.9,790.5,164.9,784.3,164.9z"/>
			<path fill="#FABE31" d="M788.7,205.1H657.5c-6.2,0-11.3,5-11.3,11.3v11.3c0,6.2,5,11.3,11.3,11.3h131.2c6.2,0,11.3-5,11.3-11.3
				v-11.3C800,210.1,795,205.1,788.7,205.1z"/>
			<path fill="#F16135" d="M793.2,245.3H653c-6.2,0-11.3,5-11.3,11.3v11.3c0,6.2,5,11.3,11.3,11.3h140.2c6.2,0,11.3-5,11.3-11.3
				v-11.3C804.5,250.3,799.4,245.3,793.2,245.3z"/>
			<path fill="#FABE31" d="M797.7,285.5H648.6c-6.2,0-11.3,5-11.3,11.3V308c0,6.2,5,11.3,11.3,11.3h149.1c6.2,0,11.3-5,11.3-11.3
				v-11.3C808.9,290.5,803.9,285.5,797.7,285.5z"/>
			<path fill="#F16135" d="M802.1,325.7h-158c-6.2,0-11.3,5-11.3,11.3v11.3c0,6.2,5,11.3,11.3,11.3h158c6.2,0,11.3-5,11.3-11.3
				v-11.3C813.4,330.7,808.3,325.7,802.1,325.7z"/>
			<g>
				<circle fill="#00375C" cx="686.3" cy="100.6" r="3.1"/>
				<circle fill="#00375C" cx="758.3" cy="100.6" r="3.1"/>
			</g>
			<g>
				<circle fill="#00375C" cx="683.5" cy="141.7" r="3.1"/>
				<circle fill="#00375C" cx="761.9" cy="141.7" r="3.1"/>
			</g>
			<g>
				<circle fill="#00375C" cx="680.1" cy="182.9" r="3.1"/>
				<circle fill="#00375C" cx="765.2" cy="182.9" r="3.1"/>
			</g>
			<g>
				<circle fill="#00375C" cx="677.6" cy="222.5" r="3.1"/>
				<circle fill="#00375C" cx="768.3" cy="222.5" r="3.1"/>
			</g>
			<g>
				<circle fill="#00375C" cx="674" cy="262.2" r="3.1"/>
				<circle fill="#00375C" cx="771.6" cy="262.2" r="3.1"/>
			</g>
			<g>
				<circle fill="#00375C" cx="671.2" cy="303.4" r="3.1"/>
				<circle fill="#00375C" cx="775.2" cy="303.4" r="3.1"/>
			</g>
			<g>
				<circle fill="#00375C" cx="668.2" cy="343" r="3.1"/>
				<circle fill="#00375C" cx="778" cy="343" r="3.1"/>
			</g>
		</g>
		<g>
			<path fill="#00375C" d="M1011.9,486.5H800.5c-8.5,0-15.4,6.9-15.4,15.4v376.8c0,8.5,6.9,15.4,15.4,15.4h211.5
				c8.5,0,15.4-6.9,15.4-15.4V501.9C1027.3,493.4,1020.4,486.5,1011.9,486.5z"/>
			<rect x="795.7" y="497.1" fill="#006A80" width="221" height="386.3"/>
			<g>
				<circle fill="#F16135" cx="906.2" cy="602.9" r="72.8"/>
				<circle fill="#00375C" cx="906.2" cy="602.9" r="58.4"/>
				<circle fill="#F16135" cx="906.2" cy="602.9" r="22"/>
			</g>
			<g>
				<circle fill="#F16135" cx="906.2" cy="774.6" r="72.8"/>
				<circle fill="#00375C" cx="906.2" cy="774.6" r="58.4"/>
				<circle fill="#F16135" cx="906.2" cy="774.6" r="22"/>
			</g>
		</g>
		<g>
			<path fill="#00375C" d="M1269.9,486.5h-211.5c-8.5,0-15.4,6.9-15.4,15.4v376.8c0,8.5,6.9,15.4,15.4,15.4h211.5
				c8.5,0,15.4-6.9,15.4-15.4V501.9C1285.2,493.4,1278.3,486.5,1269.9,486.5z"/>
			<rect x="1053.6" y="497.1" fill="#006A80" width="221" height="386.3"/>
			<g>
				<circle fill="#F16135" cx="1164.1" cy="602.9" r="72.8"/>
				<circle fill="#00375C" cx="1164.1" cy="602.9" r="58.4"/>
				<circle fill="#F16135" cx="1164.1" cy="602.9" r="22"/>
			</g>
			<g>
				<circle fill="#F16135" cx="1164.1" cy="774.6" r="72.8"/>
				<circle fill="#00375C" cx="1164.1" cy="774.6" r="58.4"/>
				<circle fill="#F16135" cx="1164.1" cy="774.6" r="22"/>
			</g>
		</g>
		<g>
			<rect x="605.9" y="562.5" fill="#00375C" width="26.4" height="37"/>
			<circle fill="#00375C" cx="619.2" cy="428.9" r="36.8"/>
			<path fill="#F16135" d="M655.6,419.7h-72.9c-0.7,0-1.3,0.6-1.3,1.3v15.8c0,0.7,0.6,1.3,1.3,1.3h72.9c0.7,0,1.3-0.6,1.3-1.3V421
				C656.9,420.3,656.3,419.7,655.6,419.7z"/>
			<polygon fill="#F16135" points="637.7,584.6 600.7,584.6 599.2,459.8 639.2,459.8 			"/>
			<rect x="614" y="476.7" fill="#00375C" width="10.3" height="28.5"/>
			<polygon fill="#00375C" points="637.8,577 637.9,566.3 600.4,566.3 600.6,577 			"/>
		</g>
		<g>
			<g>
				<path fill="#F16135" d="M1166.3,305.5c0,14.3-16.7,25.9-37.2,25.9c-20.5,0-37.2-11.6-37.2-25.9c0-1.1,0.1-2.2,0.3-3.3
					c-30.8,1.6-55.7,27-56.5,58.1c-0.8,32.4,24.4,59.2,56.2,61c0-0.4,0-0.9,0-1.3c0-14.3,16.7-25.9,37.2-25.9
					c20.5,0,37.2,11.6,37.2,25.9c0,4.6-1.7,8.9-4.7,12.6c10.4,5,22.1,7.7,34.5,7.6c41.7-0.6,75.7-34.6,76.3-76.3
					c0.6-43.3-34.3-78.5-77.4-78.5c-12,0-23.3,2.7-33.4,7.6C1164.6,296.7,1166.3,300.9,1166.3,305.5z"/>
				<polygon fill="#00375C" points="1105.9,351.2 1105.9,374.3 895.9,371 895.9,354.6 				"/>
				<polygon fill="#00375C" points="1232,374.3 1232,351.2 1285.2,357.9 1285.2,367.6 				"/>
				<path fill="#00375C" d="M853,354c-4.6,0.3-8.3,4.2-8.3,8.8l0,0c0,4.7,3.6,8.5,8.3,8.8l39.6,2.6c1.8,0.1,3.3-1.3,3.3-3.1v-16.7
					c0-1.8-1.5-3.2-3.3-3.1L853,354z"/>
				<g>
					<g>
						<path fill="#00375C" d="M859.9,369.1v15.2c-1.6,0.5-2.7,2-2.7,3.8c0,2.2,1.8,4,4,4c2.2,0,4-1.8,4-4c0-1.8-1.1-3.2-2.7-3.8
							v-15.2H859.9z"/>
						<path fill="#00375C" d="M876.8,369.1v15.2c-1.6,0.5-2.7,2-2.7,3.8c0,2.2,1.8,4,4,4c2.2,0,4-1.8,4-4c0-1.8-1.1-3.2-2.7-3.8
							v-15.2H876.8z"/>
					</g>
					<g>
						<path fill="#00375C" d="M885,356.4v-15.2c1.6-0.5,2.7-2,2.7-3.8c0-2.2-1.8-4-4-4c-2.2,0-4,1.8-4,4c0,1.8,1.1,3.2,2.7,3.8v15.2
							H885z"/>
						<path fill="#00375C" d="M868.1,356.4v-15.2c1.6-0.5,2.7-2,2.7-3.8c0-2.2-1.8-4-4-4c-2.2,0-4,1.8-4,4c0,1.8,1.1,3.2,2.7,3.8
							v15.2H868.1z"/>
					</g>
				</g>
				<g>
					<path fill="#00375C" d="M1142.7,384.7c-0.9,2.6,0.4,5.5,3,6.5l0,0l56.3,19.4c-0.3,0.4-0.6,0.9-0.8,1.5
						c-0.9,2.7,0.5,5.7,3.2,6.6c2.7,0.9,5.7-0.5,6.6-3.2c0.9-2.7-0.5-5.7-3.2-6.6c0,0-0.1,0-0.1,0l-56-19.3c0.4-0.4,0.7-0.9,0.9-1.5
						c0.9-2.7-0.5-5.7-3.2-6.6S1143.6,382,1142.7,384.7z"/>
					<path fill="#00375C" d="M1211,310c0.9,2.6-0.4,5.5-3,6.5l0,0l-56.3,19.4c0.3,0.4,0.6,0.9,0.8,1.5c0.9,2.7-0.5,5.7-3.2,6.6
						c-2.7,0.9-5.7-0.5-6.6-3.2c-0.9-2.7,0.5-5.7,3.2-6.6c0,0,0.1,0,0.1,0l56-19.3c-0.4-0.4-0.7-0.9-0.9-1.5
						c-0.9-2.7,0.5-5.7,3.2-6.6S1210,307.3,1211,310z"/>
				</g>
			</g>
			<g>
				<path fill="#00375C" d="M949.8,277.8c0,1.7,1.4,3.1,3.1,3.1h323.9v-6.2H952.9C951.2,274.8,949.8,276.1,949.8,277.8z"/>
				<rect x="966.5" y="276.3" fill="#CCC6C6" width="270.6" height="3.1"/>
			</g>
		</g>
	</g>
</g>
</svg>
